<svg width="1076" height="250" viewBox="0 0 1076 250" fill="none" xmlns="http://www.w3.org/2000/svg">
<g clip-path="url(#clip0_22_60)">
<rect x="114" y="119" width="173" height="133" rx="25" fill="#1365FF"/>
<rect y="65" width="203" height="187" rx="25" fill="#15A0FE"/>
<rect width="108" height="252" rx="25" fill="#16DDFF"/>
<path d="M388.5 64.625C385.833 63.125 383.042 62.375 380.125 62.375C376.458 62.375 373.417 63.5833 371 66C368.583 68.3333 366.458 71.25 364.625 74.75V110H348.75V46.875H364.625V58.75C366.792 55 369.333 51.875 372.25 49.375C375.25 46.875 378.625 45.625 382.375 45.625C384.625 45.625 386.667 46 388.5 46.75V64.625ZM425.75 45.25C429.167 45.25 432.625 46.0417 436.125 47.625C439.625 49.2083 442.542 51.3333 444.875 54V46.875H460.75V110H444.875V99.375C443.042 102.792 440.375 105.75 436.875 108.25C433.375 110.667 429.292 111.875 424.625 111.875C419.542 111.875 414.833 110.583 410.5 108C406.25 105.417 402.833 101.667 400.25 96.75C397.667 91.8333 396.375 85.875 396.375 78.875C396.375 71.875 397.667 65.875 400.25 60.875C402.917 55.875 406.458 52.0417 410.875 49.375C415.375 46.625 420.333 45.25 425.75 45.25ZM429 60.75C425.667 60.75 422.792 61.625 420.375 63.375C418.042 65.0417 416.208 67.25 414.875 70C413.542 72.75 412.875 75.7083 412.875 78.875C412.875 83.625 414.292 87.6667 417.125 91C420.042 94.3333 423.875 96 428.625 96C431.458 96 434.083 95.25 436.5 93.75C439 92.25 441 90.1667 442.5 87.5C444.083 84.75 444.875 81.4583 444.875 77.625V68.625C442.625 66.2083 440.167 64.2917 437.5 62.875C434.917 61.4583 432.083 60.75 429 60.75ZM496.125 20V75L521.875 46.875H541.75L514.5 74.25L543.125 110H523.125L504 84.875L496.125 92.75V110H480.25V20H496.125ZM569.375 20V75L595.125 46.875H615L587.75 74.25L616.375 110H596.375L577.25 84.875L569.375 92.75V110H553.5V20H569.375ZM640 14C643 14 645.583 15.0833 647.75 17.25C649.917 19.3333 651 21.8333 651 24.75C651 27.5833 649.917 30.0833 647.75 32.25C645.583 34.4167 643 35.5 640 35.5C637 35.5 634.417 34.4167 632.25 32.25C630.167 30.0833 629.125 27.5833 629.125 24.75C629.125 21.8333 630.167 19.3333 632.25 17.25C634.417 15.0833 637 14 640 14ZM649.25 46.875V110H633.375V60.375H623.25V46.875H649.25ZM682.5 14C685.5 14 688.083 15.0833 690.25 17.25C692.417 19.3333 693.5 21.8333 693.5 24.75C693.5 27.5833 692.417 30.0833 690.25 32.25C688.083 34.4167 685.5 35.5 682.5 35.5C679.5 35.5 676.917 34.4167 674.75 32.25C672.667 30.0833 671.625 27.5833 671.625 24.75C671.625 21.8333 672.667 19.3333 674.75 17.25C676.917 15.0833 679.5 14 682.5 14ZM691.75 46.875V110H675.875V60.375H665.75V46.875H691.75ZM383.75 165.25C389.167 165.25 394.083 166.625 398.5 169.375C403 172.042 406.542 175.875 409.125 180.875C411.792 185.875 413.125 191.875 413.125 198.875C413.125 205.875 411.792 211.833 409.125 216.75C406.542 221.667 403.083 225.417 398.75 228C394.5 230.583 389.875 231.875 384.875 231.875C380.208 231.875 376.125 230.667 372.625 228.25C369.125 225.75 366.458 222.792 364.625 219.375V230H348.75V140H364.625V174C366.958 171.333 369.833 169.208 373.25 167.625C376.75 166.042 380.25 165.25 383.75 165.25ZM380.5 180.875C377.417 180.875 374.542 181.583 371.875 183C369.292 184.333 366.875 186.208 364.625 188.625V197.625C364.542 201.458 365.25 204.75 366.75 207.5C368.333 210.167 370.375 212.25 372.875 213.75C375.375 215.167 378.042 215.875 380.875 215.875C385.625 215.875 389.417 214.25 392.25 211C395.167 207.667 396.625 203.625 396.625 198.875C396.625 195.708 395.958 192.792 394.625 190.125C393.292 187.375 391.417 185.167 389 183.5C386.583 181.75 383.75 180.875 380.5 180.875ZM457.625 165.25C463.792 165.25 469.417 166.75 474.5 169.75C479.583 172.667 483.667 176.667 486.75 181.75C489.917 186.75 491.5 192.375 491.5 198.625C491.5 204.875 489.917 210.5 486.75 215.5C483.667 220.5 479.583 224.5 474.5 227.5C469.417 230.417 463.792 231.875 457.625 231.875C451.542 231.875 445.917 230.417 440.75 227.5C435.667 224.5 431.583 220.5 428.5 215.5C425.417 210.5 423.875 204.875 423.875 198.625C423.875 192.375 425.417 186.75 428.5 181.75C431.583 176.667 435.667 172.667 440.75 169.75C445.917 166.75 451.542 165.25 457.625 165.25ZM457.625 180.625C454.625 180.625 451.833 181.333 449.25 182.75C446.667 184.167 444.583 186.208 443 188.875C441.5 191.542 440.75 194.792 440.75 198.625C440.75 202.458 441.5 205.708 443 208.375C444.583 211.042 446.667 213.083 449.25 214.5C451.833 215.833 454.625 216.5 457.625 216.5C460.625 216.5 463.417 215.833 466 214.5C468.583 213.083 470.667 211.042 472.25 208.375C473.833 205.708 474.625 202.458 474.625 198.625C474.625 194.792 473.833 191.542 472.25 188.875C470.667 186.208 468.583 184.167 466 182.75C463.417 181.333 460.625 180.625 457.625 180.625ZM535.875 165.25C542.042 165.25 547.667 166.75 552.75 169.75C557.833 172.667 561.917 176.667 565 181.75C568.167 186.75 569.75 192.375 569.75 198.625C569.75 204.875 568.167 210.5 565 215.5C561.917 220.5 557.833 224.5 552.75 227.5C547.667 230.417 542.042 231.875 535.875 231.875C529.792 231.875 524.167 230.417 519 227.5C513.917 224.5 509.833 220.5 506.75 215.5C503.667 210.5 502.125 204.875 502.125 198.625C502.125 192.375 503.667 186.75 506.75 181.75C509.833 176.667 513.917 172.667 519 169.75C524.167 166.75 529.792 165.25 535.875 165.25ZM535.875 180.625C532.875 180.625 530.083 181.333 527.5 182.75C524.917 184.167 522.833 186.208 521.25 188.875C519.75 191.542 519 194.792 519 198.625C519 202.458 519.75 205.708 521.25 208.375C522.833 211.042 524.917 213.083 527.5 214.5C530.083 215.833 532.875 216.5 535.875 216.5C538.875 216.5 541.667 215.833 544.25 214.5C546.833 213.083 548.917 211.042 550.5 208.375C552.083 205.708 552.875 202.458 552.875 198.625C552.875 194.792 552.083 191.542 550.5 188.875C548.917 186.208 546.833 184.167 544.25 182.75C541.667 181.333 538.875 180.625 535.875 180.625ZM600.625 140V195L626.375 166.875H646.25L619 194.25L647.625 230H627.625L608.5 204.875L600.625 212.75V230H584.75V140H600.625ZM678.375 165.25C682.292 165.25 685.917 165.833 689.25 167C692.583 168.167 695.167 169.5 697 171V185C695 183.667 692.542 182.375 689.625 181.125C686.792 179.875 683.833 179.25 680.75 179.25C677.75 179.25 675.375 179.917 673.625 181.25C671.875 182.583 671 184.167 671 186C671 187.333 671.5 188.583 672.5 189.75C673.5 190.833 675.417 191.792 678.25 192.625L685.375 195C694.958 197.833 699.75 203.375 699.75 211.625C699.75 215.542 698.625 219.042 696.375 222.125C694.208 225.125 691.25 227.5 687.5 229.25C683.833 231 679.75 231.875 675.25 231.875C671 231.875 666.875 231.208 662.875 229.875C658.875 228.542 655.833 227.083 653.75 225.5V211.625C655.333 212.708 657.25 213.75 659.5 214.75C661.75 215.75 664.083 216.583 666.5 217.25C668.917 217.833 671.125 218.125 673.125 218.125C676.292 218.125 678.708 217.583 680.375 216.5C682.125 215.333 683 213.708 683 211.625C683 210.042 682.292 208.792 680.875 207.875C679.458 206.958 677.375 206.042 674.625 205.125L666.875 202.375C662.042 200.792 658.708 198.542 656.875 195.625C655.042 192.708 654.125 189.25 654.125 185.25C654.125 181.25 655.125 177.792 657.125 174.875C659.208 171.875 662.083 169.542 665.75 167.875C669.417 166.125 673.625 165.25 678.375 165.25ZM736.125 148.5V166.875H753.625V180.125H736.125V207.375C736.125 210.208 736.75 212.458 738 214.125C739.333 215.708 741.292 216.5 743.875 216.5C746.125 216.5 748.042 216.25 749.625 215.75C751.292 215.25 752.833 214.542 754.25 213.625V226.25C752.667 227.833 750.667 229.167 748.25 230.25C745.917 231.333 742.958 231.875 739.375 231.875C733.708 231.875 729.083 230.083 725.5 226.5C722 222.833 720.25 217.833 720.25 211.5V180.125H708.875V172C712.875 170.583 716.542 167.917 719.875 164C723.292 160.083 726 154.917 728 148.5H736.125ZM799.25 165.25C805.417 165.25 811.042 166.75 816.125 169.75C821.208 172.667 825.292 176.667 828.375 181.75C831.542 186.75 833.125 192.375 833.125 198.625C833.125 204.875 831.542 210.5 828.375 215.5C825.292 220.5 821.208 224.5 816.125 227.5C811.042 230.417 805.417 231.875 799.25 231.875C793.167 231.875 787.542 230.417 782.375 227.5C777.292 224.5 773.208 220.5 770.125 215.5C767.042 210.5 765.5 204.875 765.5 198.625C765.5 192.375 767.042 186.75 770.125 181.75C773.208 176.667 777.292 172.667 782.375 169.75C787.542 166.75 793.167 165.25 799.25 165.25ZM799.25 180.625C796.25 180.625 793.458 181.333 790.875 182.75C788.292 184.167 786.208 186.208 784.625 188.875C783.125 191.542 782.375 194.792 782.375 198.625C782.375 202.458 783.125 205.708 784.625 208.375C786.208 211.042 788.292 213.083 790.875 214.5C793.458 215.833 796.25 216.5 799.25 216.5C802.25 216.5 805.042 215.833 807.625 214.5C810.208 213.083 812.292 211.042 813.875 208.375C815.458 205.708 816.25 202.458 816.25 198.625C816.25 194.792 815.458 191.542 813.875 188.875C812.292 186.208 810.208 184.167 807.625 182.75C805.042 181.333 802.25 180.625 799.25 180.625ZM887.875 184.625C885.208 183.125 882.417 182.375 879.5 182.375C875.833 182.375 872.792 183.583 870.375 186C867.958 188.333 865.833 191.25 864 194.75V230H848.125V166.875H864V178.75C866.167 175 868.708 171.875 871.625 169.375C874.625 166.875 878 165.625 881.75 165.625C884 165.625 886.042 166 887.875 166.75V184.625ZM927.75 165.25C933.917 165.25 939.208 166.583 943.625 169.25C948.125 171.917 951.542 175.625 953.875 180.375C956.292 185.042 957.5 190.458 957.5 196.625V203.375H911.75C912.583 207.625 914.667 211.042 918 213.625C921.333 216.208 925.417 217.5 930.25 217.5C934.833 217.5 939 216.583 942.75 214.75C946.5 212.917 949.5 211.042 951.75 209.125L951.625 223.875C949.625 225.625 946.625 227.417 942.625 229.25C938.708 231 934.375 231.875 929.625 231.875C923.375 231.875 917.667 230.458 912.5 227.625C907.417 224.792 903.333 220.917 900.25 216C897.25 211.083 895.75 205.458 895.75 199.125C895.75 192.958 897.125 187.333 899.875 182.25C902.625 177.167 906.417 173.083 911.25 170C916.083 166.833 921.583 165.25 927.75 165.25ZM927.375 179.125C923.458 179.125 920.167 180.333 917.5 182.75C914.833 185.167 913 188.417 912 192.5H942.25C941.917 188 940.25 184.667 937.25 182.5C934.25 180.25 930.958 179.125 927.375 179.125Z" fill="black"/>
</g>
<defs>
<clipPath id="clip0_22_60">
<rect width="1076" height="250" fill="white"/>
</clipPath>
</defs>
</svg>
